<mxfile host="Electron" agent="Mozilla/5.0 (Windows NT 10.0; WOW64) AppleWebKit/537.36 (KHTML, like Gecko) draw.io/24.7.8 Chrome/128.0.6613.36 Electron/32.0.1 Safari/537.36" version="24.7.8" pages="2">
  <diagram id="0VhedeAtt_wt2l0HJVHj" name="Websites">
    <mxGraphModel dx="3612" dy="2781" grid="1" gridSize="10" guides="1" tooltips="1" connect="1" arrows="1" fold="1" page="1" pageScale="1" pageWidth="827" pageHeight="1169" math="0" shadow="0">
      <root>
        <mxCell id="0" />
        <mxCell id="1" parent="0" />
        <mxCell id="KhuyPBfwcu8phUTzebZM-36" value="Legenda" style="rounded=0;whiteSpace=wrap;html=1;shadow=1;dashed=1;fillColor=#DAE8FC50;verticalAlign=top;fontStyle=1;opacity=80;" vertex="1" parent="1">
          <mxGeometry x="400" y="-280" width="310" height="110" as="geometry" />
        </mxCell>
        <mxCell id="KhuyPBfwcu8phUTzebZM-21" value="User Provisioning" style="rounded=1;whiteSpace=wrap;html=1;verticalAlign=top;fontStyle=1;fillColor=#dae8fc;strokeColor=#6c8ebf;shadow=1;" vertex="1" parent="1">
          <mxGeometry x="447" y="670" width="150" height="140" as="geometry" />
        </mxCell>
        <mxCell id="KhuyPBfwcu8phUTzebZM-17" value="Identity Provider" style="rounded=1;whiteSpace=wrap;html=1;verticalAlign=top;fontStyle=1;fillColor=#dae8fc;strokeColor=#6c8ebf;shadow=1;" vertex="1" parent="1">
          <mxGeometry x="270" y="670" width="150" height="140" as="geometry" />
        </mxCell>
        <mxCell id="KhuyPBfwcu8phUTzebZM-18" value="Database Server" style="rounded=1;whiteSpace=wrap;html=1;verticalAlign=top;fontStyle=1;fillColor=#dae8fc;strokeColor=#6c8ebf;arcSize=22;shadow=1;" vertex="1" parent="1">
          <mxGeometry x="612" y="670" width="150" height="140" as="geometry" />
        </mxCell>
        <mxCell id="KhuyPBfwcu8phUTzebZM-12" value="Webserver" style="rounded=1;whiteSpace=wrap;html=1;verticalAlign=top;fontStyle=1;fillColor=#dae8fc;strokeColor=#6c8ebf;shadow=1;" vertex="1" parent="1">
          <mxGeometry x="110" y="370" width="680" height="140" as="geometry" />
        </mxCell>
        <mxCell id="KhuyPBfwcu8phUTzebZM-22" style="edgeStyle=orthogonalEdgeStyle;rounded=0;orthogonalLoop=1;jettySize=auto;html=1;exitX=0.5;exitY=0;exitDx=0;exitDy=0;exitPerimeter=0;startArrow=none;startFill=0;endArrow=none;endFill=0;" edge="1" parent="1" source="KhuyPBfwcu8phUTzebZM-1" target="KhuyPBfwcu8phUTzebZM-4">
          <mxGeometry relative="1" as="geometry" />
        </mxCell>
        <mxCell id="KhuyPBfwcu8phUTzebZM-1" value="LDAP" style="shape=cylinder3;whiteSpace=wrap;html=1;boundedLbl=1;backgroundOutline=1;size=15;fillColor=#f5f5f5;gradientColor=#b3b3b3;strokeColor=#666666;" vertex="1" parent="1">
          <mxGeometry x="312" y="700" width="60" height="80" as="geometry" />
        </mxCell>
        <mxCell id="KhuyPBfwcu8phUTzebZM-6" style="edgeStyle=orthogonalEdgeStyle;rounded=0;orthogonalLoop=1;jettySize=auto;html=1;entryX=1;entryY=0.5;entryDx=0;entryDy=0;startArrow=classic;startFill=1;" edge="1" parent="1" source="KhuyPBfwcu8phUTzebZM-2" target="KhuyPBfwcu8phUTzebZM-3">
          <mxGeometry relative="1" as="geometry" />
        </mxCell>
        <mxCell id="KhuyPBfwcu8phUTzebZM-2" value="HRM" style="shape=cylinder3;whiteSpace=wrap;html=1;boundedLbl=1;backgroundOutline=1;size=15;fillColor=#f5f5f5;gradientColor=#b3b3b3;strokeColor=#666666;" vertex="1" parent="1">
          <mxGeometry x="650" y="700" width="60" height="80" as="geometry" />
        </mxCell>
        <mxCell id="KhuyPBfwcu8phUTzebZM-7" style="edgeStyle=orthogonalEdgeStyle;rounded=0;orthogonalLoop=1;jettySize=auto;html=1;startArrow=classic;startFill=1;" edge="1" parent="1" source="KhuyPBfwcu8phUTzebZM-3" target="KhuyPBfwcu8phUTzebZM-1">
          <mxGeometry relative="1" as="geometry" />
        </mxCell>
        <mxCell id="KhuyPBfwcu8phUTzebZM-3" value="Sync&lt;br&gt;(python)" style="ellipse;whiteSpace=wrap;html=1;aspect=fixed;" vertex="1" parent="1">
          <mxGeometry x="482" y="700" width="80" height="80" as="geometry" />
        </mxCell>
        <mxCell id="KhuyPBfwcu8phUTzebZM-5" style="edgeStyle=orthogonalEdgeStyle;rounded=0;orthogonalLoop=1;jettySize=auto;html=1;exitX=1;exitY=0.5;exitDx=0;exitDy=0;startArrow=classic;startFill=1;entryX=1;entryY=0.5;entryDx=0;entryDy=0;entryPerimeter=0;" edge="1" parent="1" source="KhuyPBfwcu8phUTzebZM-4" target="KhuyPBfwcu8phUTzebZM-2">
          <mxGeometry relative="1" as="geometry">
            <Array as="points">
              <mxPoint x="810" y="440" />
              <mxPoint x="810" y="740" />
            </Array>
          </mxGeometry>
        </mxCell>
        <mxCell id="KhuyPBfwcu8phUTzebZM-4" value="HRM" style="whiteSpace=wrap;html=1;aspect=fixed;fillColor=#ffcd28;strokeColor=#d79b00;gradientColor=#ffa500;shadow=1;rounded=0;" vertex="1" parent="1">
          <mxGeometry x="670" y="400" width="80" height="80" as="geometry" />
        </mxCell>
        <mxCell id="KhuyPBfwcu8phUTzebZM-13" value="Accounts" style="edgeStyle=orthogonalEdgeStyle;rounded=0;orthogonalLoop=1;jettySize=auto;html=1;exitX=0.5;exitY=1;exitDx=0;exitDy=0;startArrow=classic;startFill=1;endArrow=none;endFill=0;" edge="1" parent="1" source="KhuyPBfwcu8phUTzebZM-8" target="KhuyPBfwcu8phUTzebZM-1">
          <mxGeometry x="-0.7397" y="-3" relative="1" as="geometry">
            <mxPoint as="offset" />
          </mxGeometry>
        </mxCell>
        <mxCell id="KhuyPBfwcu8phUTzebZM-8" value="Admin" style="whiteSpace=wrap;html=1;aspect=fixed;fillColor=#ffcd28;strokeColor=#d79b00;gradientColor=#ffa500;shadow=1;rounded=0;" vertex="1" parent="1">
          <mxGeometry x="543" y="400" width="80" height="80" as="geometry" />
        </mxCell>
        <mxCell id="KhuyPBfwcu8phUTzebZM-14" style="edgeStyle=orthogonalEdgeStyle;rounded=0;orthogonalLoop=1;jettySize=auto;html=1;exitX=0.5;exitY=1;exitDx=0;exitDy=0;startArrow=classic;startFill=1;endArrow=none;endFill=0;" edge="1" parent="1" source="KhuyPBfwcu8phUTzebZM-9" target="KhuyPBfwcu8phUTzebZM-1">
          <mxGeometry relative="1" as="geometry" />
        </mxCell>
        <mxCell id="KhuyPBfwcu8phUTzebZM-9" value="SharePoint" style="whiteSpace=wrap;html=1;aspect=fixed;fillColor=#ffcd28;strokeColor=#d79b00;gradientColor=#ffa500;shadow=1;rounded=0;" vertex="1" parent="1">
          <mxGeometry x="416" y="400" width="80" height="80" as="geometry" />
        </mxCell>
        <mxCell id="KhuyPBfwcu8phUTzebZM-15" style="edgeStyle=orthogonalEdgeStyle;rounded=0;orthogonalLoop=1;jettySize=auto;html=1;exitX=0.5;exitY=1;exitDx=0;exitDy=0;startArrow=classic;startFill=1;endArrow=none;endFill=0;" edge="1" parent="1" source="KhuyPBfwcu8phUTzebZM-10" target="KhuyPBfwcu8phUTzebZM-1">
          <mxGeometry relative="1" as="geometry" />
        </mxCell>
        <mxCell id="KhuyPBfwcu8phUTzebZM-10" value="Grades" style="whiteSpace=wrap;html=1;aspect=fixed;fillColor=#ffcd28;strokeColor=#d79b00;gradientColor=#ffa500;shadow=1;rounded=0;" vertex="1" parent="1">
          <mxGeometry x="162" y="400" width="80" height="80" as="geometry" />
        </mxCell>
        <mxCell id="KhuyPBfwcu8phUTzebZM-16" value="Authenticatie&lt;br&gt;Rollen" style="edgeStyle=orthogonalEdgeStyle;rounded=0;orthogonalLoop=1;jettySize=auto;html=1;exitX=0.5;exitY=1;exitDx=0;exitDy=0;startArrow=classic;startFill=1;endArrow=none;endFill=0;" edge="1" parent="1" source="KhuyPBfwcu8phUTzebZM-11" target="KhuyPBfwcu8phUTzebZM-1">
          <mxGeometry x="0.3991" y="-2" relative="1" as="geometry">
            <mxPoint x="570" y="570" as="targetPoint" />
            <mxPoint as="offset" />
          </mxGeometry>
        </mxCell>
        <mxCell id="KhuyPBfwcu8phUTzebZM-11" value="Marketing" style="whiteSpace=wrap;html=1;aspect=fixed;fillColor=#ffcd28;strokeColor=#d79b00;gradientColor=#ffa500;shadow=1;rounded=0;" vertex="1" parent="1">
          <mxGeometry x="289" y="400" width="80" height="80" as="geometry" />
        </mxCell>
        <mxCell id="KhuyPBfwcu8phUTzebZM-19" value="Database Server" style="rounded=1;whiteSpace=wrap;html=1;verticalAlign=top;fontStyle=1;fillColor=#dae8fc;strokeColor=#6c8ebf;shadow=1;" vertex="1" parent="1">
          <mxGeometry x="381" y="110" width="150" height="140" as="geometry" />
        </mxCell>
        <mxCell id="KhuyPBfwcu8phUTzebZM-23" style="edgeStyle=orthogonalEdgeStyle;rounded=0;orthogonalLoop=1;jettySize=auto;html=1;exitX=0.5;exitY=1;exitDx=0;exitDy=0;exitPerimeter=0;startArrow=none;startFill=0;endArrow=classic;endFill=1;" edge="1" parent="1" source="KhuyPBfwcu8phUTzebZM-20" target="KhuyPBfwcu8phUTzebZM-11">
          <mxGeometry relative="1" as="geometry" />
        </mxCell>
        <mxCell id="KhuyPBfwcu8phUTzebZM-24" style="edgeStyle=orthogonalEdgeStyle;rounded=0;orthogonalLoop=1;jettySize=auto;html=1;exitX=0.5;exitY=1;exitDx=0;exitDy=0;exitPerimeter=0;startArrow=none;startFill=0;endArrow=classic;endFill=1;" edge="1" parent="1" source="KhuyPBfwcu8phUTzebZM-20" target="KhuyPBfwcu8phUTzebZM-10">
          <mxGeometry relative="1" as="geometry" />
        </mxCell>
        <mxCell id="KhuyPBfwcu8phUTzebZM-25" style="edgeStyle=orthogonalEdgeStyle;rounded=0;orthogonalLoop=1;jettySize=auto;html=1;exitX=0.5;exitY=1;exitDx=0;exitDy=0;exitPerimeter=0;startArrow=none;startFill=0;endArrow=classic;endFill=1;" edge="1" parent="1" source="KhuyPBfwcu8phUTzebZM-20" target="KhuyPBfwcu8phUTzebZM-9">
          <mxGeometry relative="1" as="geometry" />
        </mxCell>
        <mxCell id="KhuyPBfwcu8phUTzebZM-26" style="edgeStyle=orthogonalEdgeStyle;rounded=0;orthogonalLoop=1;jettySize=auto;html=1;exitX=0.5;exitY=1;exitDx=0;exitDy=0;exitPerimeter=0;entryX=0.5;entryY=0;entryDx=0;entryDy=0;startArrow=none;startFill=0;endArrow=classic;endFill=1;" edge="1" parent="1" source="KhuyPBfwcu8phUTzebZM-20" target="KhuyPBfwcu8phUTzebZM-8">
          <mxGeometry relative="1" as="geometry" />
        </mxCell>
        <mxCell id="KhuyPBfwcu8phUTzebZM-27" value="Permissies" style="edgeStyle=orthogonalEdgeStyle;rounded=0;orthogonalLoop=1;jettySize=auto;html=1;exitX=0.5;exitY=1;exitDx=0;exitDy=0;exitPerimeter=0;startArrow=none;startFill=0;endArrow=classic;endFill=1;" edge="1" parent="1" source="KhuyPBfwcu8phUTzebZM-20" target="KhuyPBfwcu8phUTzebZM-4">
          <mxGeometry x="-0.7792" relative="1" as="geometry">
            <mxPoint as="offset" />
          </mxGeometry>
        </mxCell>
        <mxCell id="KhuyPBfwcu8phUTzebZM-20" value="IAM" style="shape=cylinder3;whiteSpace=wrap;html=1;boundedLbl=1;backgroundOutline=1;size=15;fillColor=#f5f5f5;gradientColor=#b3b3b3;strokeColor=#666666;" vertex="1" parent="1">
          <mxGeometry x="426" y="140" width="60" height="80" as="geometry" />
        </mxCell>
        <mxCell id="KhuyPBfwcu8phUTzebZM-28" value="Database Server" style="rounded=1;whiteSpace=wrap;html=1;verticalAlign=top;fontStyle=1;fillColor=#DAE8FC50;strokeColor=#6c8ebf;dashed=1;" vertex="1" parent="1">
          <mxGeometry x="-70" y="310" width="150" height="140" as="geometry" />
        </mxCell>
        <mxCell id="KhuyPBfwcu8phUTzebZM-30" style="edgeStyle=orthogonalEdgeStyle;rounded=0;orthogonalLoop=1;jettySize=auto;html=1;exitX=0.5;exitY=1;exitDx=0;exitDy=0;exitPerimeter=0;entryX=0;entryY=0.5;entryDx=0;entryDy=0;startArrow=none;startFill=0;endArrow=classic;endFill=1;dashed=1;" edge="1" parent="1" source="KhuyPBfwcu8phUTzebZM-29" target="KhuyPBfwcu8phUTzebZM-10">
          <mxGeometry relative="1" as="geometry" />
        </mxCell>
        <mxCell id="KhuyPBfwcu8phUTzebZM-29" value="Grades" style="shape=cylinder3;whiteSpace=wrap;html=1;boundedLbl=1;backgroundOutline=1;size=15;fillColor=#f5f5f5;dashed=1;gradientColor=#b3b3b3;strokeColor=#666666;" vertex="1" parent="1">
          <mxGeometry x="-25" y="340" width="60" height="80" as="geometry" />
        </mxCell>
        <mxCell id="KhuyPBfwcu8phUTzebZM-31" value="Sync" style="edgeStyle=orthogonalEdgeStyle;rounded=0;orthogonalLoop=1;jettySize=auto;html=1;exitX=0;exitY=0.5;exitDx=0;exitDy=0;exitPerimeter=0;entryX=0;entryY=0.5;entryDx=0;entryDy=0;entryPerimeter=0;dashed=1;startArrow=none;startFill=0;endArrow=classic;endFill=1;" edge="1" parent="1" source="KhuyPBfwcu8phUTzebZM-1" target="KhuyPBfwcu8phUTzebZM-20">
          <mxGeometry relative="1" as="geometry">
            <Array as="points">
              <mxPoint x="-110" y="740" />
              <mxPoint x="-110" y="180" />
            </Array>
          </mxGeometry>
        </mxCell>
        <mxCell id="KhuyPBfwcu8phUTzebZM-32" value="Docker container" style="rounded=1;whiteSpace=wrap;html=1;verticalAlign=top;fontStyle=1;fillColor=#dae8fc;strokeColor=#6c8ebf;shadow=1;" vertex="1" parent="1">
          <mxGeometry x="425" y="-250" width="80" height="50" as="geometry" />
        </mxCell>
        <mxCell id="KhuyPBfwcu8phUTzebZM-33" value="&lt;h1&gt;Docker containers en taakverdeling&lt;/h1&gt;&lt;p&gt;In deze afbeelding wordt duidelijk welke taken verdeeld zijn over welke docker containers. Deze zijn in blauwe afgeronde vierkanten weergegeven. De volgende Docker containers zijn in gebruik:&lt;/p&gt;&lt;p&gt;&lt;/p&gt;&lt;ul&gt;&lt;li&gt;Database server IAM&lt;/li&gt;&lt;li&gt;Database server HRM&lt;/li&gt;&lt;li&gt;User provisioning&lt;/li&gt;&lt;li&gt;Webserver voor meerdere websites&lt;/li&gt;&lt;li&gt;Identity Provider (via LDAP)&lt;/li&gt;&lt;/ul&gt;&lt;div&gt;Helemaal links staat een extra database server die niet geimplementeerd is maar als voorbeeld geldt hoe je de Cijferadministratie (&quot;Grades&quot;) normaal gesproken zou voorzien van informatie, opgeslagen in een database. Datzelfde kan ook gelden voor SharePoint en de Marketing website. Vanwege de beperkte ruimte zijn deze niet getekend.&amp;nbsp;&lt;/div&gt;&lt;div&gt;&lt;br&gt;&lt;/div&gt;&lt;div&gt;De HRM website haalt wel de informatie daadwerkelijk uit een echte database. Voor de cijfers en Marketing worden deze gegeven nagebootst met vaste lijsten of willekeurige informatie.&amp;nbsp;&lt;/div&gt;&lt;div&gt;&lt;br&gt;&lt;/div&gt;&lt;div&gt;Het ICT Admin Panel haalt ook account informatie uit de LDAP voor toekenning van rollen.&lt;/div&gt;&lt;p&gt;&lt;/p&gt;" style="text;html=1;strokeColor=#777777;fillColor=default;spacing=5;spacingTop=-20;whiteSpace=wrap;overflow=hidden;rounded=0;shadow=1;" vertex="1" parent="1">
          <mxGeometry x="-130" y="-290" width="490" height="360" as="geometry" />
        </mxCell>
        <mxCell id="KhuyPBfwcu8phUTzebZM-34" value="Website" style="whiteSpace=wrap;html=1;aspect=fixed;fillColor=#ffcd28;strokeColor=#d79b00;gradientColor=#ffa500;shadow=1;" vertex="1" parent="1">
          <mxGeometry x="535" y="-255" width="60" height="60" as="geometry" />
        </mxCell>
        <mxCell id="KhuyPBfwcu8phUTzebZM-35" value="Database" style="shape=cylinder3;whiteSpace=wrap;html=1;boundedLbl=1;backgroundOutline=1;size=15;fillColor=#f5f5f5;gradientColor=#b3b3b3;strokeColor=#666666;fontSize=10;" vertex="1" parent="1">
          <mxGeometry x="627" y="-260" width="53" height="70" as="geometry" />
        </mxCell>
      </root>
    </mxGraphModel>
  </diagram>
  <diagram id="dIkD87McTVYqDcfU2Rx9" name="CreateRole">
    <mxGraphModel dx="1295" dy="791" grid="1" gridSize="10" guides="1" tooltips="1" connect="1" arrows="1" fold="1" page="1" pageScale="1" pageWidth="2336" pageHeight="1654" math="0" shadow="0">
      <root>
        <mxCell id="0" />
        <mxCell id="1" parent="0" />
        <mxCell id="hH9NVPgH48FskCQeVFJ4-1" value="Nieuwe rol aanmaken" style="swimlane;childLayout=stackLayout;resizeParent=1;resizeParentMax=0;startSize=20;html=1;" vertex="1" parent="1">
          <mxGeometry x="480" y="170" width="780" height="620" as="geometry" />
        </mxCell>
        <mxCell id="hH9NVPgH48FskCQeVFJ4-2" value="Apache Directory Studio" style="swimlane;startSize=20;html=1;" vertex="1" parent="hH9NVPgH48FskCQeVFJ4-1">
          <mxGeometry y="20" width="190" height="600" as="geometry" />
        </mxCell>
        <mxCell id="hH9NVPgH48FskCQeVFJ4-6" value="Create Rol" style="rounded=0;whiteSpace=wrap;html=1;" vertex="1" parent="hH9NVPgH48FskCQeVFJ4-2">
          <mxGeometry x="40" y="50" width="90" height="40" as="geometry" />
        </mxCell>
        <mxCell id="hH9NVPgH48FskCQeVFJ4-11" value="LDAP" style="swimlane;startSize=20;html=1;" vertex="1" parent="hH9NVPgH48FskCQeVFJ4-1">
          <mxGeometry x="190" y="20" width="160" height="600" as="geometry" />
        </mxCell>
        <mxCell id="hH9NVPgH48FskCQeVFJ4-10" value="Rol" style="shape=document;whiteSpace=wrap;html=1;boundedLbl=1;" vertex="1" parent="hH9NVPgH48FskCQeVFJ4-11">
          <mxGeometry x="50" y="45" width="80" height="50" as="geometry" />
        </mxCell>
        <mxCell id="hH9NVPgH48FskCQeVFJ4-28" value="Gebruikers" style="shape=document;whiteSpace=wrap;html=1;boundedLbl=1;" vertex="1" parent="hH9NVPgH48FskCQeVFJ4-11">
          <mxGeometry x="40" y="410" width="80" height="50" as="geometry" />
        </mxCell>
        <mxCell id="hH9NVPgH48FskCQeVFJ4-30" value="Gebruiker / Rol" style="shape=document;whiteSpace=wrap;html=1;boundedLbl=1;" vertex="1" parent="hH9NVPgH48FskCQeVFJ4-11">
          <mxGeometry x="40" y="490" width="80" height="50" as="geometry" />
        </mxCell>
        <mxCell id="hH9NVPgH48FskCQeVFJ4-3" value="Admin website" style="swimlane;startSize=20;html=1;" vertex="1" parent="hH9NVPgH48FskCQeVFJ4-1">
          <mxGeometry x="350" y="20" width="210" height="600" as="geometry" />
        </mxCell>
        <mxCell id="hH9NVPgH48FskCQeVFJ4-17" style="edgeStyle=orthogonalEdgeStyle;rounded=0;orthogonalLoop=1;jettySize=auto;html=1;exitX=0.5;exitY=1;exitDx=0;exitDy=0;" edge="1" parent="hH9NVPgH48FskCQeVFJ4-3" source="hH9NVPgH48FskCQeVFJ4-7" target="hH9NVPgH48FskCQeVFJ4-13">
          <mxGeometry relative="1" as="geometry" />
        </mxCell>
        <mxCell id="hH9NVPgH48FskCQeVFJ4-7" value="Sync" style="rounded=0;whiteSpace=wrap;html=1;" vertex="1" parent="hH9NVPgH48FskCQeVFJ4-3">
          <mxGeometry x="40" y="50" width="90" height="40" as="geometry" />
        </mxCell>
        <mxCell id="hH9NVPgH48FskCQeVFJ4-13" value="Rol" style="shape=document;whiteSpace=wrap;html=1;boundedLbl=1;" vertex="1" parent="hH9NVPgH48FskCQeVFJ4-3">
          <mxGeometry x="45" y="130" width="80" height="50" as="geometry" />
        </mxCell>
        <mxCell id="hH9NVPgH48FskCQeVFJ4-20" value="Vullen rol" style="rounded=0;whiteSpace=wrap;html=1;" vertex="1" parent="hH9NVPgH48FskCQeVFJ4-3">
          <mxGeometry x="40" y="260" width="90" height="40" as="geometry" />
        </mxCell>
        <mxCell id="hH9NVPgH48FskCQeVFJ4-26" value="autoriseer gebruikers" style="rounded=0;whiteSpace=wrap;html=1;" vertex="1" parent="hH9NVPgH48FskCQeVFJ4-3">
          <mxGeometry x="60" y="415" width="90" height="40" as="geometry" />
        </mxCell>
        <mxCell id="hH9NVPgH48FskCQeVFJ4-8" style="edgeStyle=orthogonalEdgeStyle;rounded=0;orthogonalLoop=1;jettySize=auto;html=1;" edge="1" parent="hH9NVPgH48FskCQeVFJ4-1" source="hH9NVPgH48FskCQeVFJ4-6" target="hH9NVPgH48FskCQeVFJ4-10">
          <mxGeometry relative="1" as="geometry" />
        </mxCell>
        <mxCell id="hH9NVPgH48FskCQeVFJ4-16" style="edgeStyle=orthogonalEdgeStyle;rounded=0;orthogonalLoop=1;jettySize=auto;html=1;exitX=1;exitY=0.5;exitDx=0;exitDy=0;" edge="1" parent="hH9NVPgH48FskCQeVFJ4-1" source="hH9NVPgH48FskCQeVFJ4-10" target="hH9NVPgH48FskCQeVFJ4-7">
          <mxGeometry relative="1" as="geometry" />
        </mxCell>
        <mxCell id="hH9NVPgH48FskCQeVFJ4-18" value="Add" style="edgeStyle=orthogonalEdgeStyle;rounded=0;orthogonalLoop=1;jettySize=auto;html=1;exitX=1;exitY=0.5;exitDx=0;exitDy=0;" edge="1" parent="hH9NVPgH48FskCQeVFJ4-1" source="hH9NVPgH48FskCQeVFJ4-13" target="hH9NVPgH48FskCQeVFJ4-19">
          <mxGeometry x="0.5429" y="15" relative="1" as="geometry">
            <mxPoint x="770" y="175" as="targetPoint" />
            <mxPoint as="offset" />
          </mxGeometry>
        </mxCell>
        <mxCell id="hH9NVPgH48FskCQeVFJ4-21" style="edgeStyle=orthogonalEdgeStyle;rounded=0;orthogonalLoop=1;jettySize=auto;html=1;exitX=0.5;exitY=1;exitDx=0;exitDy=0;exitPerimeter=0;" edge="1" parent="hH9NVPgH48FskCQeVFJ4-1" source="hH9NVPgH48FskCQeVFJ4-19" target="hH9NVPgH48FskCQeVFJ4-20">
          <mxGeometry relative="1" as="geometry" />
        </mxCell>
        <mxCell id="hH9NVPgH48FskCQeVFJ4-23" style="edgeStyle=orthogonalEdgeStyle;rounded=0;orthogonalLoop=1;jettySize=auto;html=1;exitX=0;exitY=0.5;exitDx=0;exitDy=0;exitPerimeter=0;" edge="1" parent="hH9NVPgH48FskCQeVFJ4-1" source="hH9NVPgH48FskCQeVFJ4-22" target="hH9NVPgH48FskCQeVFJ4-20">
          <mxGeometry relative="1" as="geometry" />
        </mxCell>
        <mxCell id="hH9NVPgH48FskCQeVFJ4-25" style="edgeStyle=orthogonalEdgeStyle;rounded=0;orthogonalLoop=1;jettySize=auto;html=1;exitX=0.5;exitY=1;exitDx=0;exitDy=0;entryX=0;entryY=0.5;entryDx=0;entryDy=0;entryPerimeter=0;" edge="1" parent="hH9NVPgH48FskCQeVFJ4-1" source="hH9NVPgH48FskCQeVFJ4-20" target="hH9NVPgH48FskCQeVFJ4-24">
          <mxGeometry relative="1" as="geometry" />
        </mxCell>
        <mxCell id="hH9NVPgH48FskCQeVFJ4-5" value="IAM DB" style="swimlane;startSize=20;html=1;" vertex="1" parent="hH9NVPgH48FskCQeVFJ4-1">
          <mxGeometry x="560" y="20" width="220" height="600" as="geometry" />
        </mxCell>
        <mxCell id="hH9NVPgH48FskCQeVFJ4-19" value="Rollen" style="shape=cylinder3;whiteSpace=wrap;html=1;boundedLbl=1;backgroundOutline=1;size=15;" vertex="1" parent="hH9NVPgH48FskCQeVFJ4-5">
          <mxGeometry x="90" y="115" width="60" height="80" as="geometry" />
        </mxCell>
        <mxCell id="hH9NVPgH48FskCQeVFJ4-22" value="Permissies" style="shape=cylinder3;whiteSpace=wrap;html=1;boundedLbl=1;backgroundOutline=1;size=15;" vertex="1" parent="hH9NVPgH48FskCQeVFJ4-5">
          <mxGeometry x="40" y="240" width="60" height="80" as="geometry" />
        </mxCell>
        <mxCell id="hH9NVPgH48FskCQeVFJ4-24" value="Rol - Permissie" style="shape=cylinder3;whiteSpace=wrap;html=1;boundedLbl=1;backgroundOutline=1;size=15;" vertex="1" parent="hH9NVPgH48FskCQeVFJ4-5">
          <mxGeometry x="40" y="330" width="60" height="80" as="geometry" />
        </mxCell>
        <mxCell id="hH9NVPgH48FskCQeVFJ4-27" style="edgeStyle=orthogonalEdgeStyle;rounded=0;orthogonalLoop=1;jettySize=auto;html=1;exitX=1;exitY=0.75;exitDx=0;exitDy=0;entryX=0;entryY=0.5;entryDx=0;entryDy=0;" edge="1" parent="hH9NVPgH48FskCQeVFJ4-1" source="hH9NVPgH48FskCQeVFJ4-10" target="hH9NVPgH48FskCQeVFJ4-26">
          <mxGeometry relative="1" as="geometry" />
        </mxCell>
        <mxCell id="hH9NVPgH48FskCQeVFJ4-29" style="edgeStyle=orthogonalEdgeStyle;rounded=0;orthogonalLoop=1;jettySize=auto;html=1;exitX=1;exitY=0.5;exitDx=0;exitDy=0;" edge="1" parent="hH9NVPgH48FskCQeVFJ4-1" source="hH9NVPgH48FskCQeVFJ4-28" target="hH9NVPgH48FskCQeVFJ4-26">
          <mxGeometry relative="1" as="geometry" />
        </mxCell>
        <mxCell id="hH9NVPgH48FskCQeVFJ4-31" style="edgeStyle=orthogonalEdgeStyle;rounded=0;orthogonalLoop=1;jettySize=auto;html=1;exitX=0.5;exitY=1;exitDx=0;exitDy=0;entryX=1;entryY=0.5;entryDx=0;entryDy=0;" edge="1" parent="hH9NVPgH48FskCQeVFJ4-1" source="hH9NVPgH48FskCQeVFJ4-26" target="hH9NVPgH48FskCQeVFJ4-30">
          <mxGeometry relative="1" as="geometry" />
        </mxCell>
      </root>
    </mxGraphModel>
  </diagram>
</mxfile>
